Coordinates
version=1
nRows=32
nColumns=18
inDegrees=yes

Units are S.I. units (second, meters, Newtons, ...)
If the header above contains a line with 'inDegrees', this indicates whether rotational values are in degrees (yes) or radians (no).

endheader
time	ground_thorax_rot_x	ground_thorax_rot_y	ground_thorax_rot_z	ground_thorax_tx	ground_thorax_ty	ground_thorax_tz	clav_prot	clav_elev	scapula_abduction	scapula_elevation	scapula_upward_rot	scapula_winging	plane_elv	shoulder_elv	axial_rot	elbow_flexion	pro_sup
      0.00000000	      3.06674253	     -3.67770006	     -8.58270944	     -0.00509872	      0.00404119	      0.00143040	    -21.47510880	     -4.46278003	    -11.32167926	     -3.72983579	     11.64646936	      5.72450106	    -20.20597982	     16.62192555	     53.34620471	      0.00000000	     34.32000000
      0.01000000	      3.06685604	     -3.67835339	     -8.58301241	     -0.00512306	      0.00407514	      0.00136922	    -21.47522007	     -4.46266458	    -11.32201530	     -3.72968327	     11.64623205	      5.72453679	    -20.20609697	     16.62169702	     53.34622194	      0.00000000	     34.32000000
      0.02000000	      3.07418011	     -3.71731873	     -8.59321370	     -0.00509250	      0.00408469	      0.00137512	    -21.48180453	     -4.45881640	    -11.34466676	     -3.72222564	     11.62809879	      5.72842937	    -20.21527196	     16.60670819	     53.34680508	      0.00000000	     34.32000000
      0.03000000	      3.06796340	     -3.76657099	     -8.58458724	     -0.00509882	      0.00408191	      0.00136086	    -21.49392828	     -4.46234251	    -11.37161782	     -3.72242980	     11.61613687	      5.73345455	    -20.21840451	     16.58102368	     53.35102188	      0.00000000	     34.32000000
      0.04000000	      3.06809625	     -3.76737272	     -8.58471459	     -0.00513945	      0.00407764	      0.00129926	    -21.49408593	     -4.46237321	    -11.37200680	     -3.72240422	     11.61591977	      5.73353076	    -20.21846607	     16.58077455	     53.35107181	      0.00000000	     34.32000000
      0.05000000	      3.04399793	     -3.77697482	     -8.57899294	     -0.00510078	      0.00408394	      0.00130658	    -21.50170056	     -4.46038051	    -11.37912116	     -3.72446896	     11.62763852	      5.73051048	    -20.21519385	     16.58291151	     53.35507056	      0.00000000	     34.32000000
      0.06000000	      3.01489533	     -3.77546138	     -8.57652684	     -0.00506989	      0.00411764	      0.00130673	    -21.50689179	     -4.45351572	    -11.38089043	     -3.72375668	     11.64350862	      5.72474630	    -20.21118104	     16.58944662	     53.35815717	      0.00000000	     34.32000000
      0.07000000	      3.01363605	     -3.77532334	     -8.57687934	     -0.00507820	      0.00418790	      0.00136585	    -21.50700916	     -4.45300092	    -11.38094156	     -3.72350076	     11.64400573	      5.72446927	    -20.21110958	     16.58983932	     53.35822465	      0.00000000	     34.32000000
      0.08000000	      2.99334555	     -3.78147008	     -8.57992557	     -0.00508458	      0.00411980	      0.00136138	    -21.51303868	     -4.44362368	    -11.38699411	     -3.71985583	     11.65598447	      5.71897472	    -20.20915262	     16.60064115	     53.36051323	      0.00000000	     34.32000000
      0.09000000	      2.99349534	     -3.78153674	     -8.57979559	     -0.00509183	      0.00407891	      0.00138265	    -21.51312880	     -4.44370011	    -11.38707488	     -3.71994628	     11.65608311	      5.71897937	    -20.20912672	     16.60076604	     53.36054733	      0.00000000	     34.32000000
      0.10000000	      2.99408817	     -3.78129835	     -8.57938647	     -0.00503468	      0.00406790	      0.00134460	    -21.51307689	     -4.44397443	    -11.38700892	     -3.72011031	     11.65591897	      5.71910210	    -20.20903212	     16.60030730	     53.36055949	      0.00000000	     34.32000000
      0.11000000	      3.01657563	     -3.76922689	     -8.57345921	     -0.00498912	      0.00416656	      0.00130687	    -21.50801243	     -4.45354079	    -11.38432136	     -3.72313225	     11.64087278	      5.72550391	    -20.20710672	     16.57029204	     53.36041672	      0.00000000	     34.32000000
      0.12000000	      3.01742203	     -3.76893800	     -8.57300390	     -0.00494215	      0.00412701	      0.00123537	    -21.50788623	     -4.45396089	    -11.38424885	     -3.72332826	     11.64042678	      5.72573814	    -20.20700958	     16.56936021	     53.36042662	      0.00000000	     34.32000000
      0.13000000	      3.01820765	     -3.76852035	     -8.57252619	     -0.00495680	      0.00404640	      0.00126522	    -21.50779530	     -4.45450242	    -11.38408427	     -3.72367869	     11.64019915	      5.72595692	    -20.20691022	     16.56885792	     53.36045514	      0.00000000	     34.32000000
      0.14000000	      3.01841001	     -3.76811906	     -8.57229583	     -0.00499571	      0.00401491	      0.00133070	    -21.50777561	     -4.45480584	    -11.38391896	     -3.72393756	     11.64029716	      5.72602468	    -20.20678115	     16.56884514	     53.36051238	      0.00000000	     34.32000000
      0.15000000	      3.01789145	     -3.76790328	     -8.57248420	     -0.00501204	      0.00408768	      0.00134592	    -21.50780365	     -4.45463869	    -11.38388693	     -3.72386881	     11.64051392	      5.72592004	    -20.20663379	     16.56893775	     53.36057967	      0.00000000	     34.32000000
      0.16000000	      3.01682366	     -3.76780363	     -8.57288393	     -0.00500000	      0.00420703	      0.00131863	    -21.50787086	     -4.45412741	    -11.38397468	     -3.72355364	     11.64079116	      5.72569631	    -20.20648078	     16.56898204	     53.36064488	      0.00000000	     34.32000000
      0.17000000	      2.98528278	     -3.76107770	     -8.57463431	     -0.00498253	      0.00420102	      0.00122960	    -21.51151839	     -4.44240225	    -11.38755619	     -3.71744550	     11.65085233	      5.71978409	    -20.20099124	     16.56432379	     53.36296284	      0.00000000	     34.32000000
      0.18000000	      2.98553565	     -3.76081967	     -8.57435949	     -0.00496412	      0.00416600	      0.00123388	    -21.51149936	     -4.44256074	    -11.38754535	     -3.71753701	     11.65074302	      5.71985959	    -20.20093773	     16.56384195	     53.36297171	      0.00000000	     34.32000000
      0.19000000	      2.98745644	     -3.76055000	     -8.57375725	     -0.00496645	      0.00404470	      0.00123971	    -21.51141191	     -4.44342946	    -11.38758918	     -3.71800430	     11.65001266	      5.72030719	    -20.20102820	     16.56264561	     53.36296087	      0.00000000	     34.32000000
      0.20000000	      3.01830709	     -3.75994442	     -8.57394642	     -0.00501433	      0.00402044	      0.00134167	    -21.51053943	     -4.45439144	    -11.39071662	     -3.72287989	     11.63695175	      5.72694756	    -20.20486035	     16.54798573	     53.36336687	      0.00000000	     34.32000000
      0.21000000	      3.01786653	     -3.76015001	     -8.57441687	     -0.00509674	      0.00400210	      0.00143312	    -21.51073778	     -4.45419091	    -11.39089988	     -3.72283780	     11.63732610	      5.72680528	    -20.20500893	     16.54875586	     53.36344189	      0.00000000	     34.32000000
      0.22000000	      3.00596996	     -3.76673248	     -8.58068493	     -0.00513321	      0.00397724	      0.00150061	    -21.51837815	     -4.44705445	    -11.39497255	     -3.72303108	     11.65679496	      5.72023224	    -20.20816688	     16.57783138	     53.36661940	      0.00000000	     34.32000000
      0.23000000	      3.00546247	     -3.76649066	     -8.58089636	     -0.00514664	      0.00401406	      0.00157528	    -21.51844828	     -4.44681721	    -11.39487300	     -3.72297615	     11.65726773	      5.72003616	    -20.20820575	     16.57844165	     53.36666994	      0.00000000	     34.32000000
      0.24000000	      3.00511221	     -3.76608650	     -8.58091535	     -0.00510868	      0.00406925	      0.00157531	    -21.51842759	     -4.44662157	    -11.39468731	     -3.72291882	     11.65761905	      5.71988502	    -20.20816136	     16.57866553	     53.36671000	      0.00000000	     34.32000000
      0.25000000	      3.00432008	     -3.76592143	     -8.58120361	     -0.00508963	      0.00417693	      0.00153225	    -21.51843464	     -4.44614505	    -11.39462646	     -3.72264373	     11.65795889	      5.71965179	    -20.20809893	     16.57874269	     53.36674339	      0.00000000	     34.32000000
      0.26000000	      2.97611006	     -3.76203375	     -8.58135324	     -0.00512201	      0.00421254	      0.00140460	    -21.51887596	     -4.43074892	    -11.39256986	     -3.71398562	     11.66974917	      5.71190870	    -20.20620073	     16.57345783	     53.36755794	      0.00000000	     34.32000000
      0.27000000	      2.97649488	     -3.76247139	     -8.58158589	     -0.00514727	      0.00422664	      0.00136126	    -21.51881212	     -4.43061076	    -11.39275065	     -3.71375649	     11.66930258	      5.71199533	    -20.20631743	     16.57279550	     53.36751973	      0.00000000	     34.32000000
      0.28000000	      2.99160681	     -3.76111120	     -8.58538860	     -0.00509704	      0.00416744	      0.00140026	    -21.51409106	     -4.42818963	    -11.39315837	     -3.70780613	     11.65513798	      5.71449016	    -20.20944744	     16.54887627	     53.36720271	      0.00000000	     34.32000000
      0.29000000	      2.99208587	     -3.76044524	     -8.58485560	     -0.00500106	      0.00413194	      0.00137770	    -21.51395033	     -4.42842836	    -11.39291028	     -3.70795374	     11.65503599	      5.71457925	    -20.20935311	     16.54838546	     53.36722096	      0.00000000	     34.32000000
      0.30000000	      2.99148246	     -3.76018359	     -8.58509882	     -0.00497571	      0.00419585	      0.00136777	    -21.51396728	     -4.42804762	    -11.39293724	     -3.70770809	     11.65520884	      5.71441896	    -20.20933202	     16.54831501	     53.36725253	      0.00000000	     34.32000000
      0.31000000	      2.96157259	     -3.75758820	     -8.59236277	     -0.00500780	      0.00416947	      0.00133191	    -21.51967874	     -4.40412021	    -11.40252210	     -3.69263154	     11.66640398	      5.70460905	    -20.21272521	     16.53553193	     53.36861383	      0.00000000	     34.32000000
